<!-- <svg xmlns="http://www.w3.org/2000/svg" width="16" height="16" fill="currentColor" class="bi bi-cloud-snow-fill" viewBox="0 0 16 16">
  <path fill= "white" d="M2.625 11.5a.25.25 0 0 1 .25.25v.57l.501-.287a.25.25 0 0 1 .248.434l-.495.283.495.283a.25.25 0 0 1-.248.434l-.501-.286v.569a.25.25 0 1 1-.5 0v-.57l-.501.287a.25.25 0 0 1-.248-.434l.495-.283-.495-.283a.25.25 0 0 1 .248-.434l.501.286v-.569a.25.25 0 0 1 .25-.25m2.75 2a.25.25 0 0 1 .25.25v.57l.5-.287a.25.25 0 0 1 .249.434l-.495.283.495.283a.25.25 0 0 1-.248.434l-.501-.286v.569a.25.25 0 1 1-.5 0v-.57l-.501.287a.25.25 0 0 1-.248-.434l.495-.283-.495-.283a.25.25 0 0 1 .248-.434l.501.286v-.569a.25.25 0 0 1 .25-.25m5.5 0a.25.25 0 0 1 .25.25v.57l.5-.287a.25.25 0 0 1 .249.434l-.495.283.495.283a.25.25 0 0 1-.248.434l-.501-.286v.569a.25.25 0 0 1-.5 0v-.57l-.501.287a.25.25 0 0 1-.248-.434l.495-.283-.495-.283a.25.25 0 0 1 .248-.434l.501.286v-.569a.25.25 0 0 1 .25-.25m-2.75-2a.25.25 0 0 1 .25.25v.57l.5-.287a.25.25 0 0 1 .249.434l-.495.283.495.283a.25.25 0 0 1-.248.434l-.501-.286v.569a.25.25 0 1 1-.5 0v-.57l-.501.287a.25.25 0 0 1-.248-.434l.495-.283-.495-.283a.25.25 0 0 1 .248-.434l.501.286v-.569a.25.25 0 0 1 .25-.25m5.5 0a.25.25 0 0 1 .25.25v.57l.5-.287a.25.25 0 0 1 .249.434l-.495.283.495.283a.25.25 0 0 1-.248.434l-.501-.286v.569a.25.25 0 0 1-.5 0v-.57l-.501.287a.25.25 0 1 1-.248-.434l.495-.283-.495-.283a.25.25 0 0 1 .248-.434l.501.286v-.569a.25.25 0 0 1 .25-.25m-.22-7.223a5.001 5.001 0 0 0-9.499-1.004A3.5 3.5 0 1 0 3.5 10.25H13a3 3 0 0 0 .405-5.973"/>
</svg> -->

<svg xmlns="http://www.w3.org/2000/svg" width="16" height="16" fill="currentColor" viewBox="-1 0 18 16">

  <defs>
    <linearGradient id="cloudGradient" x1="0%" y1="0%" x2="100%" y2="100%">
      <stop offset="0%" stop-color="#dcdcdc"/>
      <stop offset="100%" stop-color="#fffafa"/>
    </linearGradient>
    <linearGradient id="snowGradient" x1="0%" y1="0%" x2="0%" y2="100%">
      <stop offset="0%" stop-color="#dcdcdc"/>
      <stop offset="100%" stop-color="#fffafa"/>
    </linearGradient>
  </defs>

  <!-- 구름 그룹 (약간 오른쪽으로 이동) -->
  <g id="cloud" transform="translate(1, 0)">
    <path fill="url(#cloudGradient)" d="M13.78 4.527a5.001 5.001 0 0 0-9.499-1.004A3.5 3.5 0 1 0 3.5 10.25H13a3 3 0 0 0 .78-5.723"/>
  </g>

  <!-- 눈송이 그룹 -->
  <g id="snowflakes" fill="url(#snowGradient)">
    <path d="M2.625 11.5a.25.25 0 0 1 .25.25v.57l.501-.287a.25.25 0 0 1 .248.434l-.495.283.495.283a.25.25 0 0 1-.248.434l-.501-.286v.569a.25.25 0 1 1-.5 0v-.57l-.501.287a.25.25 0 0 1-.248-.434l.495-.283-.495-.283a.25.25 0 0 1 .248-.434l.501.286v-.569a.25.25 0 0 1 .25-.25z"/>
    <path d="M5.375 13.5a.25.25 0 0 1 .25.25v.57l.5-.287a.25.25 0 0 1 .249.434l-.495.283.495.283a.25.25 0 0 1-.248.434l-.501-.286v.569a.25.25 0 1 1-.5 0v-.57l-.501.287a.25.25 0 0 1-.248-.434l.495-.283-.495-.283a.25.25 0 0 1 .248-.434l.501.286v-.569a.25.25 0 0 1 .25-.25z"/>
    <path d="M10.875 13.5a.25.25 0 0 1 .25.25v.57l.5-.287a.25.25 0 0 1 .249.434l-.495.283.495.283a.25.25 0 0 1-.248.434l-.501-.286v.569a.25.25 0 0 1-.5 0v-.57l-.501.287a.25.25 0 0 1-.248-.434l.495-.283-.495-.283a.25.25 0 0 1 .248-.434l.501.286v-.569a.25.25 0 0 1 .25-.25z"/>
    <path d="M8.125 11.5a.25.25 0 0 1 .25.25v.57l.5-.287a.25.25 0 0 1 .249.434l-.495.283.495.283a.25.25 0 0 1-.248.434l-.501-.286v.569a.25.25 0 1 1-.5 0v-.57l-.501.287a.25.25 0 0 1-.248-.434l.495-.283-.495-.283a.25.25 0 0 1 .248-.434l.501.286v-.569a.25.25 0 0 1 .25-.25z"/>
    <path d="M13.625 11.5a.25.25 0 0 1 .25.25v.57l.5-.287a.25.25 0 0 1 .249.434l-.495.283.495.283a.25.25 0 0 1-.248.434l-.501-.286v.569a.25.25 0 0 1-.5 0v-.57l-.501.287a.25.25 0 1 1-.248-.434l.495-.283-.495-.283a.25.25 0 0 1 .248-.434l.501.286v-.569a.25.25 0 0 1 .25-.25z"/>
  </g>
</svg>