<!-- <svg xmlns="http://www.w3.org/2000/svg" width="16" height="16" fill="currentColor" class="bi bi-clouds-fill" viewBox="0 0 16 16">
    <linearGradient id="cloudGrayGradient" x1="0%" y1="0%" x2="100%" y2="100%">
      <stop offset="0%" stop-color="#dcdcdc"/>
      <stop offset="100%" stop-color="#a9a9a9"/>
    </linearGradient>
  </defs>
  
  <path fill="url(#cloudGradient)" d="M11.473 9a4.5 4.5 0 0 0-8.72-.99A3 3 0 0 0 3 14h8.5a2.5 2.5 0 1 0-.027-5"/>
  <path fill="url(#cloudGradient)" d="M14.544 9.772a3.5 3.5 0 0 0-2.225-1.676 5.5 5.5 0 0 0-6.337-4.002 4.002 4.002 0 0 1 7.392.91 2.5 2.5 0 0 1 1.17 4.769z"/>
</svg> -->

<svg xmlns="http://www.w3.org/2000/svg" width="16" height="16" viewBox="0 0 16 16">
  <defs>
    <!-- 구름 회색 그라데이션 -->
    <linearGradient id="cloudGrayGradient" x1="0%" y1="0%" x2="100%" y2="100%">
      <stop offset="0%" stop-color="#dcdcdc"/>
      <stop offset="100%" stop-color="#a9a9a9"/>
    </linearGradient>
  </defs>

  <!-- 첫 번째 구름 -->
  <path fill="url(#cloudGrayGradient)"
        d="M11.473 9a4.5 4.5 0 0 0-8.72-.99A3 3 0 0 0 3 14h8.5a2.5 2.5 0 1 0-.027-5"/>

  <!-- 두 번째 구름 (겹치는 부분) -->
  <path fill="url(#cloudGrayGradient)"
        d="M14.544 9.772a3.5 3.5 0 0 0-2.225-1.676 5.5 5.5 0 0 0-6.337-4.002 4.002 4.002 0 0 1 7.392.91 2.5 2.5 0 0 1 1.17 4.769z"/>
</svg>
