<!-- <svg xmlns="http://www.w3.org/2000/svg" width="16" height="16" fill="currentColor" class="bi bi-cloud-sleet-fill" viewBox="0 0 16 16">
  <path fill= "white" d="M2.375 13.5a.25.25 0 0 1 .25.25v.57l.501-.287a.25.25 0 0 1 .248.434l-.495.283.495.283a.25.25 0 1 1-.248.434l-.501-.286v.569a.25.25 0 1 1-.5 0v-.57l-.501.287a.25.25 0 1 1-.248-.434l.495-.283-.495-.283a.25.25 0 1 1 .248-.434l.501.286v-.569a.25.25 0 0 1 .25-.25m1.849-2.447a.5.5 0 0 1 .223.67l-.5 1a.5.5 0 0 1-.894-.447l.5-1a.5.5 0 0 1 .67-.223zM6.375 13.5a.25.25 0 0 1 .25.25v.57l.5-.287a.25.25 0 0 1 .249.434l-.495.283.495.283a.25.25 0 1 1-.248.434l-.501-.286v.569a.25.25 0 1 1-.5 0v-.57l-.501.287a.25.25 0 1 1-.248-.434l.495-.283-.495-.283a.25.25 0 1 1 .248-.434l.501.286v-.569a.25.25 0 0 1 .25-.25m1.849-2.447a.5.5 0 0 1 .223.67l-.5 1a.5.5 0 0 1-.894-.447l.5-1a.5.5 0 0 1 .67-.223zm2.151 2.447a.25.25 0 0 1 .25.25v.57l.5-.287a.25.25 0 0 1 .249.434l-.495.283.495.283a.25.25 0 1 1-.248.434l-.501-.286v.569a.25.25 0 0 1-.5 0v-.57l-.501.287a.25.25 0 1 1-.248-.434l.495-.283-.495-.283a.25.25 0 1 1 .248-.434l.501.286v-.569a.25.25 0 0 1 .25-.25m1.849-2.447a.5.5 0 0 1 .223.67l-.5 1a.5.5 0 1 1-.894-.447l.5-1a.5.5 0 0 1 .67-.223zm1.181-7.026a5.001 5.001 0 0 0-9.499-1.004A3.5 3.5 0 1 0 3.5 10H13a3 3 0 0 0 .405-5.973"/>
</svg> -->

<svg xmlns="http://www.w3.org/2000/svg" width="16" height="16" viewBox="-1 0 18 16">
  <defs>
    <!-- 구름 그라데이션 -->
    <linearGradient id="cloudGradient" x1="0%" y1="0%" x2="0%" y2="100%">
      <stop offset="0%" stop-color="#e0e0e0"/>
      <stop offset="100%" stop-color="#ffffff"/>
    </linearGradient>

    <!-- 눈송이 그라데이션 -->
    <linearGradient id="snowGradient" x1="0%" y1="0%" x2="0%" y2="100%">
      <stop offset="0%" stop-color="#dcdcdc"/>
      <stop offset="100%" stop-color="#fffafa"/>
    </linearGradient>

    <!-- 비 그라데이션 -->
    <linearGradient id="rainGradient" x1="0%" y1="0%" x2="0%" y2="100%">
      <stop offset="0%" stop-color="#b3d9ff" />
      <stop offset="100%" stop-color="#3399ff" />
    </linearGradient>
  </defs>

  <!-- 구름 -->
  <g id="cloud" fill="url(#cloudGradient)">
    <path d="M14.405 3.977a5.001 5.001 0 0 0-9.499-1.004A3.5 3.5 0 1 0 3.5 10H13a3 3 0 0 0 1.405-6.023"/>
  </g>

  <!-- 눈송이 (오른쪽 이동) -->
  <g id="snow" transform="translate(0.8, 0)" fill="url(#snowGradient)">
    <path d="M2.375 13.5a.25.25 0 0 1 .25.25v.57l.501-.287a.25.25 0 0 1 .248.434l-.495.283.495.283a.25.25 0 1 1-.248.434l-.501-.286v.569a.25.25 0 1 1-.5 0v-.57l-.501.287a.25.25 0 1 1-.248-.434l.495-.283-.495-.283a.25.25 0 1 1 .248-.434l.501.286v-.569a.25.25 0 0 1 .25-.25z"/>
    <path d="M6.375 13.5a.25.25 0 0 1 .25.25v.57l.5-.287a.25.25 0 0 1 .249.434l-.495.283.495.283a.25.25 0 1 1-.248.434l-.501-.286v.569a.25.25 0 1 1-.5 0v-.57l-.501.287a.25.25 0 1 1-.248-.434l.495-.283-.495-.283a.25.25 0 1 1 .248-.434l.501.286v-.569a.25.25 0 0 1 .25-.25z"/>
    <path d="M10.625 13.5a.25.25 0 0 1 .25.25v.57l.5-.287a.25.25 0 0 1 .249.434l-.495.283.495.283a.25.25 0 1 1-.248.434l-.501-.286v.569a.25.25 0 0 1-.5 0v-.57l-.501.287a.25.25 0 1 1-.248-.434l.495-.283-.495-.283a.25.25 0 1 1 .248-.434l.501.286v-.569a.25.25 0 0 1 .25-.25z"/>
  </g>

  <!-- 비 (오른쪽 이동) -->
  <g id="rain" transform="translate(0.8, 0)" fill="url(#rainGradient)">
    <path d="M4.224 11.053a.5.5 0 0 1 .223.67l-.5 1a.5.5 0 0 1-.894-.447l.5-1a.5.5 0 0 1 .67-.223z"/>
    <path d="M8.224 11.053a.5.5 0 0 1 .223.67l-.5 1a.5.5 0 0 1-.894-.447l.5-1a.5.5 0 0 1 .67-.223z"/>
    <path d="M12.224 11.053a.5.5 0 0 1 .223.67l-.5 1a.5.5 0 1 1-.894-.447l.5-1a.5.5 0 0 1 .67-.223z"/>
  </g>
</svg>
